<?xml version="1.0" encoding="UTF-8"?>
<svg xmlns="http://www.w3.org/2000/svg" xmlns:xlink="http://www.w3.org/1999/xlink" width="200px" height="200px" viewBox="0 0 300 300" version="1.1">
<defs>
<clipPath id="clip1">
  <path d="M 0 0 L 299.914062 0 L 299.914062 299.914062 L 0 299.914062 Z M 0 0 "/>
</clipPath>
<clipPath id="clip2">
  <path d="M 79.933594 63.929688 L 219.980469 63.929688 L 219.980469 235.988281 L 79.933594 235.988281 Z M 79.933594 63.929688 "/>
</clipPath>
</defs>
<g id="surface1">
<g clip-path="url(#clip1)" clip-rule="nonzero">
<path style="fill-rule:nonzero;fill:rgb(100%,52.941176%,3.137255%);fill-opacity:1;stroke-width:1;stroke-linecap:butt;stroke-linejoin:miter;stroke:rgb(100%,100%,100%);stroke-opacity:1;stroke-miterlimit:4;" d="M -0.000000000000034677 166.952132 C -0.000000000000034677 74.745534 74.745534 -0.000000000000006141 166.952132 -0.000000000000006141 C 259.158731 -0.000000000000006141 333.904264 74.745534 333.904264 166.952132 C 333.904264 259.158731 259.158731 333.904264 166.952132 333.904264 C 74.745534 333.904264 -0.000000000000034677 259.158731 -0.000000000000034677 166.952132 Z M 166.952132 316.630205 C 249.617118 316.630205 316.630205 249.617118 316.630205 166.952132 C 316.630205 84.287147 249.617118 17.274059 166.952132 17.274059 C 84.287147 17.274059 17.274059 84.291496 17.274059 166.952132 C 17.274059 249.617118 84.291496 316.630205 166.952132 316.630205 Z M 166.952132 316.630205 " transform="matrix(0.898204,0,0,0.898204,0.000000000000031147,0.000000000000005516)"/>
</g>
<path style=" stroke:none;fill-rule:nonzero;fill:rgb(100%,52.941176%,3.137255%);fill-opacity:1;" d="M 293.914062 149.957031 C 293.914062 70.449219 229.464844 5.996094 149.957031 5.996094 C 70.449219 5.996094 5.996094 70.449219 5.996094 149.957031 C 5.996094 229.464844 70.449219 293.914062 149.957031 293.914062 C 229.464844 293.914062 293.914062 229.464844 293.914062 149.957031 Z M 293.914062 149.957031 "/>
<g clip-path="url(#clip2)" clip-rule="nonzero">
<path style=" stroke:none;fill-rule:nonzero;fill:rgb(100%,100%,100%);fill-opacity:1;" d="M 132.238281 135.953125 L 174.253906 135.953125 C 179.015625 135.953125 184.121094 137.039062 189.570312 139.210938 C 194.980469 141.421875 200.066406 144.144531 204.832031 147.382812 L 204.546875 147.382812 C 209.503906 151.003906 213.308594 155.675781 215.980469 161.390625 C 218.648438 167.105469 219.980469 173.964844 219.980469 181.96875 L 219.980469 190.542969 C 219.980469 206.167969 214.835938 217.691406 204.546875 225.125 C 199.59375 228.9375 194.542969 231.699219 189.398438 233.414062 C 184.253906 235.128906 179.207031 235.988281 174.253906 235.988281 L 125.664062 235.988281 C 120.707031 235.988281 115.660156 235.128906 110.515625 233.414062 C 105.371094 231.699219 100.320312 228.9375 95.367188 225.125 C 85.078125 217.882812 79.933594 206.359375 79.933594 190.542969 L 79.933594 187.113281 C 79.933594 178.917969 85.171875 174.917969 95.652344 175.105469 C 106.324219 175.105469 111.660156 179.109375 111.660156 187.113281 L 111.660156 190.257812 C 111.660156 194.832031 113.089844 199.117188 115.945312 203.117188 C 118.804688 207.121094 123.851562 209.121094 131.09375 209.121094 L 168.820312 209.121094 C 176.0625 209.121094 181.109375 207.121094 183.96875 203.117188 C 186.824219 199.117188 188.253906 194.832031 188.253906 190.257812 L 188.253906 182.253906 C 188.253906 179.777344 187.929688 177.394531 187.285156 175.105469 C 186.597656 172.824219 185.492188 170.765625 183.96875 168.933594 C 182.441406 167.144531 180.441406 165.675781 177.964844 164.535156 C 175.488281 163.390625 172.441406 162.816406 168.820312 162.816406 L 127.09375 162.816406 C 117.375 162.816406 107.179688 159.390625 96.511719 152.527344 C 86.410156 146.050781 81.363281 134.902344 81.363281 119.089844 L 81.363281 109.371094 C 81.363281 101.75 82.695312 95.023438 85.363281 89.195312 C 88.03125 83.402344 91.84375 78.695312 96.796875 75.074219 L 96.511719 75.074219 C 101.273438 71.835938 106.324219 69.167969 111.660156 67.074219 C 116.996094 64.972656 122.136719 63.929688 127.09375 63.929688 L 172.824219 63.929688 C 177.777344 63.929688 182.882812 64.972656 188.140625 67.074219 C 193.363281 69.167969 198.449219 71.835938 203.40625 75.074219 L 203.117188 75.074219 C 208.074219 78.695312 211.882812 83.402344 214.550781 89.195312 C 217.21875 95.023438 218.550781 101.75 218.550781 109.371094 L 218.550781 111.941406 C 218.550781 115.945312 217.21875 118.84375 214.550781 120.632812 C 211.882812 122.460938 207.976562 123.472656 202.832031 123.660156 C 192.351562 123.851562 187.113281 119.949219 187.113281 111.941406 L 187.113281 109.660156 C 187.113281 104.894531 185.644531 100.550781 182.710938 96.625 C 179.738281 92.738281 174.726562 90.792969 167.675781 90.792969 L 132.238281 90.792969 C 125.183594 90.792969 120.191406 92.738281 117.261719 96.625 C 114.285156 100.550781 112.800781 104.894531 112.800781 109.660156 L 112.800781 116.515625 C 112.800781 121.472656 114.285156 125.949219 117.261719 129.949219 C 120.191406 133.949219 125.183594 135.953125 132.238281 135.953125 Z M 132.238281 135.953125 "/>
</g>
</g>
</svg>
